<?xml version="1.0" standalone="no"?>
<!DOCTYPE svg PUBLIC "-//W3C//DTD SVG 20010904//EN"
 "http://www.w3.org/TR/2001/REC-SVG-20010904/DTD/svg10.dtd">
<svg version="1.0" xmlns="http://www.w3.org/2000/svg"
 width="859.000000pt" height="859.000000pt" viewBox="0 0 859.000000 859.000000"
 preserveAspectRatio="xMidYMid meet">
<metadata>
Created by potrace 1.14, written by Peter Selinger 2001-2017
</metadata>
<g transform="translate(0.000000,859.000000) scale(0.100000,-0.100000)"
fill="#000000" stroke="none">
<path d="M4088 6834 c-2 -1 -30 -5 -63 -8 -189 -18 -502 -88 -640 -145 -188
-77 -268 -114 -360 -164 -105 -58 -260 -156 -317 -201 -14 -11 -41 -32 -59
-46 -61 -46 -183 -156 -266 -241 -262 -268 -494 -647 -608 -993 -22 -69 -63
-209 -69 -241 -4 -16 -9 -41 -11 -55 -24 -115 -34 -174 -31 -177 2 -2 0 -21
-4 -41 -22 -97 -30 -370 -17 -537 11 -140 17 -181 43 -315 77 -389 235 -748
471 -1068 31 -42 59 -79 62 -82 3 -3 30 -34 60 -70 215 -257 561 -522 868
-665 138 -65 401 -163 415 -155 2 1 15 -3 31 -9 15 -6 38 -13 50 -15 12 -3 63
-14 112 -25 50 -11 117 -23 150 -26 33 -4 62 -9 65 -10 11 -7 240 -18 342 -18
174 1 404 26 536 58 25 6 45 10 87 20 60 14 262 78 334 107 785 311 1389 994
1596 1808 20 81 34 148 60 307 20 121 26 428 12 598 -43 522 -262 1047 -611
1465 -418 501 -1046 847 -1677 925 -30 3 -67 9 -84 11 -33 5 -473 13 -477 8z
m487 -77 c12 -3 48 -8 80 -12 33 -4 78 -11 100 -15 22 -5 54 -11 70 -14 17 -3
87 -21 156 -40 440 -121 818 -343 1149 -675 248 -249 445 -553 575 -884 44
-113 110 -336 121 -407 3 -19 7 -42 9 -50 6 -22 14 -74 29 -196 14 -108 15
-498 2 -574 -4 -19 -11 -64 -17 -100 -5 -36 -12 -78 -15 -95 -3 -16 -18 -82
-34 -145 -151 -600 -502 -1112 -1012 -1478 -494 -354 -1104 -519 -1722 -468
-50 5 -97 9 -105 11 -9 1 -38 6 -64 9 -27 4 -59 9 -70 12 -12 2 -37 7 -56 10
-18 3 -89 21 -156 39 -430 118 -819 342 -1129 649 -236 233 -378 429 -517 711
-175 358 -262 725 -263 1120 -1 239 19 415 70 620 14 55 26 107 28 116 24 101
129 359 199 489 64 120 75 137 136 229 299 444 715 777 1217 976 112 44 331
110 404 121 19 3 42 7 50 9 24 7 87 17 195 30 95 12 522 13 570 2z"/>
<path d="M3644 5669 c-213 -20 -345 -135 -406 -355 -20 -72 -22 -103 -22 -344
0 -218 3 -277 17 -334 49 -198 169 -324 346 -366 58 -14 197 -16 270 -5 97 14
223 73 289 134 l32 30 0 286 0 285 -191 -2 -191 -3 -44 -95 c-23 -52 -43 -98
-43 -102 -1 -5 42 -8 94 -8 l96 0 -3 -127 -3 -128 -45 -22 c-97 -50 -234 -19
-289 64 -47 70 -55 131 -56 393 0 200 3 245 19 304 30 108 101 167 201 166 39
-1 101 -23 125 -45 20 -18 44 -83 55 -147 l6 -37 134 1 135 1 0 27 c0 39 -35
170 -59 221 -71 150 -246 228 -467 208z"/>
<path d="M4819 5662 c-151 -27 -261 -111 -324 -245 -61 -128 -67 -167 -70
-434 -2 -132 1 -258 5 -280 5 -21 12 -53 15 -72 8 -47 43 -127 76 -176 68
-102 161 -163 294 -191 47 -11 204 -4 258 10 62 17 153 70 194 114 50 53 93
132 120 219 26 86 26 95 27 348 0 240 -2 266 -23 340 -60 215 -190 339 -384
370 -68 11 -116 10 -188 -3z m186 -245 c60 -31 95 -86 115 -182 14 -63 18
-448 7 -520 -24 -149 -93 -225 -207 -225 -49 0 -115 26 -142 56 -26 30 -58
109 -66 162 -9 64 -8 446 1 502 21 129 66 195 152 221 33 10 108 3 140 -14z"/>
<path d="M3610 4013 c-207 -37 -351 -202 -388 -448 -4 -27 -7 -156 -6 -285 0
-192 4 -247 18 -300 55 -203 177 -326 362 -365 61 -13 175 -14 229 -2 148 33
253 114 316 243 53 110 63 181 63 454 0 265 -8 327 -60 439 -25 55 -78 127
-124 169 -36 32 -136 78 -198 91 -52 11 -162 13 -212 4z m176 -244 c59 -18
100 -80 125 -186 17 -70 18 -462 2 -541 -29 -142 -89 -202 -204 -202 -65 0
-109 19 -146 65 -54 65 -66 132 -68 377 -2 245 5 320 40 390 51 99 138 133
251 97z"/>
<path d="M4520 3310 l0 -691 233 4 c242 5 263 7 337 34 169 62 291 220 317
409 9 70 10 408 1 479 -26 210 -167 381 -357 434 -60 17 -105 20 -301 21
l-230 1 0 -691z m474 441 c78 -31 121 -94 133 -199 9 -72 10 -398 2 -473 -4
-31 -16 -77 -27 -103 -38 -85 -97 -116 -228 -119 l-69 -2 -3 457 -2 456 82 -3
c46 -1 96 -8 112 -14z"/>
</g>
</svg>
